<svg xmlns="http://www.w3.org/2000/svg" x="0px" y="0px" width="48" height="48" viewBox="0 0 48 48">
<path fill="#8a4581" d="M38.045,3.725c-5,0-3.146-0.164-7.645-0.16c-3.752,0.004-5.49,0.348-8.18,0.195	c-2.228-0.127-5.596-0.195-7.824-0.049c-3.044,0.2-7.326-1.134-9.489,1.663c-1.367,1.768-1.236,4.792-1.344,6.964	s0.573,6.432,0.416,8.601c-0.439,6.082,0.1,4.617-0.128,10.251c-0.083,2.056-0.094,9.43,1.193,11.035	c1.24,1.545,3.227,2.06,6.598,2.017c4.447-0.057,7.87-0.134,12.317-0.111c1.699,0.009,3.553,0.098,5.253,0.106	c1.371,0.007,4.528-0.257,5.899-0.279c1.275-0.02,4.203-0.099,5.508-0.205c1.305-0.106,2.747-1.108,3.32-2.286	c0.245-0.502,0.315-1.067,0.444-1.611c0.242-1.02,0.317-8.281,0.334-8.817c0.161-5.172-0.35-12.527-0.338-15.177	c0.016-3.513,0.001-5.052-0.335-7.138C43.561,5.722,41.954,3.532,38.045,3.725"></path><path fill="#010101" d="M11.281,44.743c-3.443,0-5.376-0.648-6.626-2.206C3.021,40.501,3.348,31.263,3.352,31.17	c0.103-2.528,0.048-3.63,0-4.602c-0.061-1.237-0.114-2.307,0.129-5.665c0.078-1.087-0.066-2.773-0.205-4.405	C3.14,14.9,3.011,13.392,3.064,12.313c0.016-0.318,0.026-0.654,0.038-1.001c0.065-2.054,0.146-4.608,1.41-6.244	c1.747-2.26,4.682-2.08,7.275-1.916c0.923,0.057,1.795,0.111,2.576,0.06c2.253-0.147,5.667-0.079,7.885,0.049	c1.449,0.083,2.633,0.018,4.004-0.06c1.144-0.063,2.441-0.135,4.146-0.137c2.191,0.008,2.894,0.036,3.614,0.077	c0.731,0.04,1.486,0.083,4.019,0.083c3.701-0.18,5.897,1.646,6.506,5.421c0.35,2.169,0.357,3.78,0.342,7.22	c-0.004,0.949,0.061,2.542,0.136,4.387c0.136,3.337,0.305,7.489,0.202,10.804c-0.003,0.084-0.007,0.333-0.013,0.698	c-0.055,3.402-0.143,7.41-0.335,8.219c-0.031,0.132-0.059,0.266-0.087,0.398c-0.09,0.435-0.184,0.883-0.394,1.314	c-0.654,1.343-2.257,2.445-3.729,2.565c-1.344,0.109-4.368,0.188-5.541,0.207c-0.615,0.01-1.592,0.068-2.604,0.13	c-1.248,0.075-2.545,0.147-3.304,0.148c-0.854-0.005-1.746-0.029-2.638-0.054c-0.884-0.024-1.769-0.049-2.615-0.053	c-3.396-0.021-6.129,0.022-9.298,0.069l-3.01,0.042C11.525,44.743,11.402,44.743,11.281,44.743z M9.678,4.064	c-1.74,0-3.348,0.288-4.375,1.615c-1.066,1.38-1.142,3.755-1.202,5.664c-0.011,0.354-0.022,0.695-0.038,1.019	c-0.05,1.011,0.082,2.556,0.209,4.05c0.143,1.671,0.29,3.398,0.206,4.563c-0.238,3.298-0.187,4.339-0.127,5.544	c0.049,0.992,0.104,2.118,0,4.691c-0.126,3.104,0.062,9.428,1.084,10.701c1.077,1.342,2.87,1.892,6.202,1.829l3.008-0.042	c3.175-0.047,5.916-0.088,9.318-0.069c0.854,0.005,1.745,0.029,2.637,0.054c0.885,0.024,1.77,0.049,2.616,0.053	c0.733-0.013,2.007-0.073,3.239-0.147c1.029-0.062,2.023-0.121,2.649-0.131c1.163-0.019,4.156-0.096,5.476-0.203	c1.129-0.093,2.408-0.974,2.911-2.007c0.156-0.319,0.232-0.689,0.314-1.08c0.03-0.144,0.06-0.286,0.093-0.427	c0.127-0.535,0.23-3.228,0.308-8.003c0.006-0.373,0.01-0.628,0.013-0.714c0.102-3.278-0.066-7.411-0.202-10.731	c-0.075-1.856-0.141-3.46-0.136-4.432c0.017-3.613-0.006-5.057-0.329-7.057c-0.522-3.238-2.307-4.725-5.482-4.581l-0.024,0.001	c-2.57,0-3.341-0.043-4.087-0.085C33.251,4.1,32.565,4.063,30.4,4.064c-1.678,0.002-2.961,0.073-4.092,0.136	c-1.402,0.077-2.612,0.144-4.116,0.059c-2.188-0.125-5.551-0.194-7.763-0.049c-0.843,0.054-1.747,0-2.704-0.06	C11.041,4.107,10.35,4.064,9.678,4.064z"></path><path fill="#d6e5e5" d="M24.094,25.833c-0.998-0.04-2.247-0.011-2.77,0.519c-0.523,0.529-0.493,0.653-0.706,1.366	c-0.137,0.46-0.099,1.687-0.123,2.165c-0.055,1.117,0.237,2.838,0.263,3.956c0.034,1.477,0.061,2.753,0.358,4.053	c0.305,1.337,1.404,2.152,2.768,2.011c0.701-0.072,1.593-0.665,1.98-1.255c0.387-0.59,0.783-1.991,0.917-2.684	c0.578-2.981,0.693-4.528,0.67-7.588c-0.002-0.222-0.066-1.114-0.121-1.329c-0.132-0.515-0.476-0.759-0.77-0.856	C25.734,25.918,24.962,25.785,24.094,25.833"></path><path fill="#d6e5e5" d="M24.17,17.326c-1.233-0.298-2.743,0.715-2.998,1.957c-0.06,0.29-0.208,1.577,0.062,2.2	c0.161,0.37,0.364,0.837,0.656,1.116c0.366,0.35,1.035,0.632,1.537,0.702c0.542,0.076,1.249,0.034,1.687-0.166	c0.905-0.414,1.482-0.721,1.683-1.764C27.129,19.653,26.165,17.574,24.17,17.326"></path><path fill="#010101" d="M23.576,40.42c-1.448,0-2.61-0.936-2.948-2.416c-0.306-1.342-0.336-2.632-0.37-4.125	c-0.011-0.485-0.068-1.045-0.125-1.621c-0.084-0.842-0.171-1.712-0.138-2.399c0.006-0.126,0.008-0.306,0.01-0.51	c0.008-0.777,0.022-1.402,0.133-1.773l0.079-0.273c0.152-0.54,0.235-0.779,0.75-1.302c0.664-0.671,2.013-0.708,3.122-0.668	c0.876-0.042,1.688,0.073,2.628,0.386c0.546,0.182,0.946,0.621,1.096,1.207c0.075,0.292,0.135,1.253,0.137,1.45	c0.022,2.973-0.077,4.581-0.679,7.686c-0.117,0.602-0.528,2.158-0.99,2.863c-0.488,0.743-1.519,1.392-2.346,1.477	C23.814,40.413,23.694,40.42,23.576,40.42z M23.549,26.321c-1.218,0-1.691,0.201-1.87,0.382c-0.355,0.359-0.374,0.428-0.499,0.87	l-0.083,0.287c-0.079,0.267-0.087,1.037-0.091,1.498c-0.002,0.22-0.004,0.413-0.011,0.549c-0.03,0.613,0.053,1.446,0.134,2.252	c0.06,0.604,0.118,1.189,0.129,1.668c0.033,1.468,0.062,2.711,0.345,3.954c0.251,1.102,1.121,1.738,2.229,1.625	c0.526-0.055,1.294-0.546,1.613-1.031c0.316-0.481,0.705-1.783,0.845-2.504c0.59-3.046,0.683-4.541,0.661-7.489	c-0.001-0.229-0.067-1.055-0.105-1.209c-0.067-0.26-0.216-0.431-0.443-0.506c-0.824-0.274-1.533-0.376-2.28-0.335l-0.024,0.002	l-0.024-0.001C23.885,26.325,23.71,26.321,23.549,26.321z"></path><path fill="#010101" d="M23.965,23.836c-0.222,0-0.431-0.016-0.607-0.04c-0.531-0.074-1.324-0.368-1.813-0.836	c-0.367-0.353-0.599-0.888-0.769-1.279c-0.382-0.881-0.096-2.483-0.093-2.499c0.153-0.743,0.662-1.438,1.396-1.904	c0.694-0.441,1.486-0.604,2.18-0.443c0.946,0.124,1.749,0.606,2.321,1.395c0.659,0.907,0.924,2.117,0.708,3.237	c-0.259,1.345-1.127,1.74-1.966,2.124C24.923,23.772,24.417,23.836,23.965,23.836z M23.716,17.773c-0.355,0-0.742,0.12-1.101,0.349	c-0.5,0.317-0.856,0.789-0.953,1.262c-0.077,0.37-0.158,1.463,0.031,1.899c0.136,0.313,0.321,0.742,0.542,0.954	c0.269,0.257,0.822,0.507,1.261,0.568c0.502,0.072,1.096,0.02,1.41-0.126c0.917-0.419,1.252-0.634,1.4-1.403	c0.162-0.84-0.043-1.783-0.535-2.46c-0.287-0.395-0.809-0.888-1.664-0.994l-0.056-0.01C23.945,17.786,23.833,17.773,23.716,17.773z"></path><path fill="#010101" d="M18.17,27.398c-0.127,0-0.253-0.048-0.351-0.144c-2.077-2.046-2.872-5.319-1.979-8.146	c0.877-2.775,3.307-5.004,6.191-5.678c2.833-0.659,5.946,0.173,8.129,2.177c1.12,1.026,2.312,2.931,2.301,5.196	c-0.009,1.978-1.066,4.866-2.819,6.279c-0.217,0.173-0.531,0.14-0.703-0.076c-0.173-0.215-0.14-0.529,0.075-0.703	c1.454-1.171,2.439-3.792,2.447-5.504c0.009-1.939-1.015-3.573-1.977-4.456c-1.943-1.782-4.713-2.525-7.226-1.938	c-2.547,0.595-4.693,2.559-5.466,5.004c-0.782,2.478-0.088,5.344,1.728,7.132c0.197,0.194,0.199,0.511,0.005,0.707	C18.428,27.349,18.299,27.398,18.17,27.398z"></path><path fill="#010101" d="M15.171,32.835c-0.075,0-0.15-0.017-0.222-0.052c-1.367-0.68-3.081-1.75-4.198-4.014	c-0.507-1.028-1.042-3.229-1.022-6.324c0.015-2.4,0.888-5.195,1.746-6.901c0.944-1.879,3.658-4.066,5.852-5.257	c2.731-1.481,6.312-1.35,8.237-1.281c7.358,0.271,11.222,6.456,11.627,7.583c1.333,3.704,1.163,5.198,0.905,7.459	c-0.171,1.501-0.521,3.119-1.913,4.783c-1.102,1.317-2.237,2.571-4,3.432c-0.247,0.122-0.547,0.018-0.668-0.229	c-0.121-0.249-0.018-0.548,0.23-0.669c1.585-0.773,2.641-1.943,3.671-3.175c1.284-1.535,1.543-3.001,1.687-4.255	c0.25-2.196,0.401-3.522-0.853-7.008c-0.312-0.867-3.932-6.672-10.722-6.921c-1.828-0.066-5.232-0.19-7.724,1.16	c-2.359,1.28-4.695,3.355-5.435,4.827c-0.806,1.602-1.625,4.22-1.639,6.458c-0.019,2.925,0.483,4.993,0.918,5.875	c0.985,1.996,2.52,2.951,3.747,3.561c0.247,0.123,0.348,0.424,0.225,0.671C15.532,32.733,15.355,32.835,15.171,32.835z"></path>
</svg>